<svg xmlns="http://www.w3.org/2000/svg" xmlns:xlink="http://www.w3.org/1999/xlink" viewBox="0 0 250.98 60.52"><defs><style>.cls-1{fill:none;}.cls-2,.cls-6{fill:#fff;}.cls-3,.cls-6{fill-rule:evenodd;}.cls-3,.cls-5{fill:url(#linear-gradient);}.cls-4{clip-path:url(#clip-path);}</style><linearGradient id="linear-gradient" x1="121.76" y1="-226.32" x2="121.76" y2="-208.18" gradientTransform="matrix(1, 0, 0, -1, 0, -192.21)" gradientUnits="userSpaceOnUse"><stop offset="0" stop-color="#ec3393"/><stop offset="1" stop-color="#f9b81e"/></linearGradient><clipPath id="clip-path"><path class="cls-1" d="M121.76,34.11h0A9.09,9.09,0,0,1,130.83,25,9.09,9.09,0,0,1,121.76,16,9.09,9.09,0,0,1,112.69,25a9.09,9.09,0,0,1,9.07,9.07"/></clipPath></defs><g id="Layer_2" data-name="Layer 2"><g id="Layer_1-2" data-name="Layer 1"><path class="cls-2" d="M225.93,17.77c5.32.72,10.69,1.48,16,2.19,2.51.31,4.25,1.79,4.25,4.34,0,2.28-1.39,5-3.94,5H217.56V34.1h24.65c5.19,0,8.77-4.83,8.77-9.8s-3.58-8.41-8.46-9c-5.32-.76-10.65-1.43-16-2.19-2.46-.31-4.29-1.74-4.29-4.38a3.62,3.62,0,0,1,4-3.89H251V0H226.19a8.25,8.25,0,0,0-8.63,8.68c0,5.1,3.49,8.41,8.37,9.08"/><polygon class="cls-2" points="142.9 0.05 142.9 34.05 147.64 34.05 158.42 20.77 167.91 34.05 173.72 34.05 161.55 16.96 175.29 0.05 169.2 0.05 147.64 26.49 147.64 0.05 142.9 0.05"/><path class="cls-2" d="M76.19,29.31V.05H71.45v34h29.17V29.31Z"/><path class="cls-2" d="M45.28,29.31V.05H40.54v34H69.71V29.31Z"/><path class="cls-3" d="M121.76,34.11h0A9.09,9.09,0,0,1,130.83,25,9.09,9.09,0,0,1,121.76,16,9.09,9.09,0,0,1,112.69,25a9.09,9.09,0,0,1,9.07,9.07"/><g class="cls-4"><rect class="cls-5" x="112.69" y="15.97" width="18.14" height="18.14"/></g><path class="cls-6" d="M15.9,1.72,0,34.11H5.3L19.39,5.4,33.48,34.11h5.3L22.88,1.72A3.07,3.07,0,0,0,20.11,0H18.65a3.09,3.09,0,0,0-2.77,1.72"/><path class="cls-6" d="M118.26,1.72l-15.9,32.39h5.3L121.75,5.4l14.09,28.71h5.3L125.24,1.72A3.07,3.07,0,0,0,122.47,0H121a3.09,3.09,0,0,0-2.77,1.72"/><path class="cls-6" d="M192.93,1.72,177,34.11h5.3L196.42,5.4l14.09,28.71h5.3L199.91,1.72A3.07,3.07,0,0,0,197.14,0h-1.46a3.09,3.09,0,0,0-2.77,1.72"/><path class="cls-2" d="M248.68,54.83a1,1,0,0,0,.93,1.19A1.29,1.29,0,0,0,251,55a1,1,0,0,0-.93-1.22,1.32,1.32,0,0,0-1.35,1M247.16,51c.07-.07.53-.82,1-1.46s.88-1.19.93-1.31a2.49,2.49,0,0,0-1.88-1.06c-.57,0-2.92,2.77-3.69,4.44a12.28,12.28,0,0,1,1.67-3.35,2.43,2.43,0,0,0-1.44-.69.27.27,0,0,0-.24.1,26.2,26.2,0,0,0-2.74,6.86c0,.39,1,1.12,1.64,1.24a1.06,1.06,0,0,1,0-.22,10.15,10.15,0,0,1,1.16-2.92,18.49,18.49,0,0,1,3.59-4.58,15.23,15.23,0,0,0-.39,2.71c0,.1.32.26.43.23Zm-12.94,3.62c0-1.68,2.31-6.28,3.59-6.28.47,0,.69.43.83.86-1.25,2.13-3.75,5.66-4.25,5.66C234.29,54.9,234.22,54.79,234.22,54.66Zm2.47-7.31c-.59,0-1.38.65-2.07,1.57a11.39,11.39,0,0,0-2.27,5.27c0,.78,1.34,1.72,2.37,1.72.32,0,1.57-1.78,2.86-3.75a15.57,15.57,0,0,0-.83,2.67c0,.39,1.11,1.12,1.75,1.24a.92.92,0,0,1,0-.32,12.18,12.18,0,0,1,.78-2.82,33.9,33.9,0,0,1,1.41-3.43,4.26,4.26,0,0,1,.72-1.16,2.33,2.33,0,0,0-1.46-.73.4.4,0,0,0-.23.13,5.27,5.27,0,0,0-.59.93,2.46,2.46,0,0,0-2.38-1.32Zm-5.63,1.4a4.36,4.36,0,0,1-2.2,2.6,2.2,2.2,0,0,1-.88.2c.82-1.68,2.13-3.39,2.83-3.39.23,0,.33.22.24.59Zm-3.37,3.47a4.16,4.16,0,0,0,1.09-.07c1.39-.32,3.78-1.84,3.78-2.87a2.29,2.29,0,0,0-2.38-2c-2.17,0-4.88,4.31-4.88,6.62a2.54,2.54,0,0,0,2.43,2c1.36,0,4-2.36,4.5-3.36,0-.1.13-.47,0-.49-1.77,1.77-3.59,2.8-4.52,2.8-.26,0-.46-.23-.46-.63a5.59,5.59,0,0,1,.49-2Zm-5.76,3.59c0-.14.82-1.71,1.77-3.45,1.13-2.08,2.59-4.51,3.19-4.88-.16-.22-1-.47-1.16-.32-.53.34-3.56,6.32-3.89,7.18a31.91,31.91,0,0,1,.59-5.39c0-.36-1.55-.93-1.77-.62a58.86,58.86,0,0,0-3.45,5.73,29.85,29.85,0,0,1,1.61-5.69c0-.4-1.72-.92-1.88-.62a32.92,32.92,0,0,0-1.59,6.53,1.17,1.17,0,0,0,0,.32,2.77,2.77,0,0,0,1.85,1.19,62.91,62.91,0,0,1,3.12-5.87,27.51,27.51,0,0,0-.46,4.18,1.36,1.36,0,0,0,0,.37,3.11,3.11,0,0,0,2,1.32Zm-6.49-7.52a2.36,2.36,0,0,0-1.45-.7c-.32.06-5.31,7.15-5.79,7.15-.06,0-.09-.06-.09-.16a24.29,24.29,0,0,1,2-5.08,4.26,4.26,0,0,1,.72-1.16c.1,0-1.38-1-1.68-.62a24.81,24.81,0,0,0-2.92,6.48c0,.78,1.34,1.71,2.37,1.68a44.58,44.58,0,0,0,3.6-5.07c-.83,2.18-1.12,3-1.44,3.92a24.3,24.3,0,0,0-1.34,4.58,2.74,2.74,0,0,0,1.45,1.21.21.21,0,0,0,.14,0,11.07,11.07,0,0,1,.19-1.19,43,43,0,0,1,1.25-4.15c.86-2.48,2.53-6.48,3-6.84Zm-10,2.75c.07-.07.53-.82,1-1.46s.88-1.19.93-1.31a2.49,2.49,0,0,0-1.88-1.06c-.57,0-2.92,2.77-3.69,4.44a12.28,12.28,0,0,1,1.67-3.35,2.43,2.43,0,0,0-1.44-.69.27.27,0,0,0-.24.1,26.2,26.2,0,0,0-2.74,6.86c0,.39,1,1.12,1.64,1.24a1.06,1.06,0,0,1,0-.22,10.15,10.15,0,0,1,1.16-2.92,18.49,18.49,0,0,1,3.59-4.58A15.23,15.23,0,0,0,205,50.8c0,.1.32.26.43.23Zm-7.62-2.29a4.36,4.36,0,0,1-2.2,2.6,2.2,2.2,0,0,1-.88.2c.82-1.68,2.13-3.39,2.83-3.39.23,0,.33.22.24.59Zm-3.37,3.47a4.16,4.16,0,0,0,1.09-.07c1.39-.32,3.78-1.84,3.78-2.87a2.29,2.29,0,0,0-2.38-2c-2.17,0-4.88,4.31-4.88,6.62a2.54,2.54,0,0,0,2.43,2c1.36,0,3.95-2.36,4.5-3.36,0-.1.13-.47,0-.49-1.77,1.77-3.59,2.8-4.52,2.8-.26,0-.46-.23-.46-.63a5.59,5.59,0,0,1,.49-2ZM188,55.88c.06-.06.66-1.25,1.51-2.66,1-1.71,3.52-5.39,4.28-5.79-.13-.22-.88-.53-1.08-.37-1.08.88-4.38,6.58-4.81,7.53a28.64,28.64,0,0,1,.75-4.05,11.17,11.17,0,0,1,.6-2.08c0-.32-1.65-.9-1.91-.67a32.46,32.46,0,0,0-1.24,6.42,1.57,1.57,0,0,0,0,.46,1.11,1.11,0,0,0,.2.3,3.35,3.35,0,0,0,1.65.92Zm-13.76-6.7c.83-.17,1.84-.33,2.92-.46-.7,1.64-2.36,5.11-2.37,6.53a2.87,2.87,0,0,0,1.82,1.35,46.3,46.3,0,0,1,8.1-.89c.19,0,.57-.55.49-.7a52,52,0,0,0-8.42.16c.5-1.67,1.64-4.38,2.64-6.68a53.25,53.25,0,0,1,6.22-.16c.16-.1.5-.59.34-.68-1.62-.12-4-.14-6.15-.07.65-1.36,1.35-2.74,1.62-3.13a30.69,30.69,0,0,1,5.85-.26c.16-.09.56-.56.43-.65a73.62,73.62,0,0,0-8.73-.06c-.24.13,0,.8.17,1.15-.43.76-1,1.88-1.55,3.06A23.23,23.23,0,0,0,175,48c-.33.19-.86,1-.7,1.18Zm-8.86,5.65a1,1,0,0,0,.93,1.19,1.29,1.29,0,0,0,1.35-1,1,1,0,0,0-.93-1.22A1.32,1.32,0,0,0,165.42,54.83ZM163.9,51c.07-.07.53-.82,1-1.46s.88-1.19.93-1.31a2.49,2.49,0,0,0-1.88-1.06c-.57,0-2.92,2.77-3.69,4.44a12,12,0,0,1,1.67-3.35,2.43,2.43,0,0,0-1.44-.69.27.27,0,0,0-.24.1,26.2,26.2,0,0,0-2.74,6.86c0,.39,1,1.12,1.64,1.24a1.06,1.06,0,0,1,0-.22,10.15,10.15,0,0,1,1.16-2.92,18.49,18.49,0,0,1,3.59-4.58,15.23,15.23,0,0,0-.39,2.71c0,.1.32.26.43.23ZM151,54.66c0-1.68,2.31-6.28,3.59-6.28.47,0,.69.43.83.86-1.25,2.13-3.75,5.66-4.25,5.66C151,54.9,151,54.79,151,54.66Zm2.47-7.31c-.59,0-1.38.65-2.07,1.57a11.39,11.39,0,0,0-2.27,5.27c0,.78,1.34,1.72,2.37,1.72.32,0,1.57-1.78,2.86-3.75a15.57,15.57,0,0,0-.83,2.67c0,.39,1.11,1.12,1.75,1.24a.92.92,0,0,1,0-.32,12.18,12.18,0,0,1,.78-2.82,33.9,33.9,0,0,1,1.41-3.43,4.26,4.26,0,0,1,.72-1.16,2.33,2.33,0,0,0-1.46-.73.4.4,0,0,0-.23.13,5.27,5.27,0,0,0-.59.93,2.46,2.46,0,0,0-2.38-1.32Zm-5.62,1.4a4.36,4.36,0,0,1-2.2,2.6,2.2,2.2,0,0,1-.88.2c.82-1.68,2.13-3.39,2.83-3.39.23,0,.33.22.24.59Zm-3.38,3.47a4.16,4.16,0,0,0,1.09-.07c1.39-.32,3.78-1.84,3.78-2.87a2.29,2.29,0,0,0-2.38-2c-2.17,0-4.88,4.31-4.88,6.62a2.54,2.54,0,0,0,2.43,2c1.36,0,3.95-2.36,4.5-3.36,0-.1.13-.47,0-.49-1.77,1.77-3.59,2.8-4.52,2.8-.26,0-.46-.23-.46-.63a5.59,5.59,0,0,1,.49-2Zm-5.76,3.59c0-.14.82-1.71,1.77-3.45,1.13-2.08,2.59-4.51,3.19-4.88-.16-.22-1-.47-1.16-.32-.53.34-3.56,6.32-3.89,7.18a31.91,31.91,0,0,1,.59-5.39c0-.36-1.55-.93-1.77-.62A58.86,58.86,0,0,0,134,54.06a29.85,29.85,0,0,1,1.61-5.69c0-.4-1.72-.92-1.88-.62a32.92,32.92,0,0,0-1.59,6.53,1.17,1.17,0,0,0,0,.32A2.77,2.77,0,0,0,134,55.79a62.91,62.91,0,0,1,3.12-5.87,27.51,27.51,0,0,0-.46,4.18,1.36,1.36,0,0,0,0,.37,3.11,3.11,0,0,0,2,1.32Zm-6.49-7.52a2.36,2.36,0,0,0-1.45-.7c-.32.06-5.31,7.15-5.79,7.15-.06,0-.09-.06-.09-.16a24.29,24.29,0,0,1,2-5.08,4.26,4.26,0,0,1,.72-1.16c.1,0-1.38-1-1.68-.62a24.81,24.81,0,0,0-2.92,6.48c0,.78,1.34,1.71,2.37,1.68a44.58,44.58,0,0,0,3.6-5.07c-.83,2.18-1.12,3-1.44,3.92a24.3,24.3,0,0,0-1.34,4.58,2.74,2.74,0,0,0,1.45,1.21.21.21,0,0,0,.14,0,11.07,11.07,0,0,1,.19-1.19,43,43,0,0,1,1.25-4.15c.86-2.48,2.53-6.48,3-6.84Zm-10.8.18c-.7,1.24-2.43,5.31-2.43,6.35,0,.39,1.16,1.13,1.81,1.25-.53-.4,2-6.65,2.53-7.68a2.53,2.53,0,0,0-1.57-1c-.69,0-1.77,1-2.21,1.55a17.49,17.49,0,0,0-2.48,3.6c.73-2,1.75-4.21,2-4.24a2.43,2.43,0,0,0-1.44-.69.27.27,0,0,0-.24.1,26.2,26.2,0,0,0-2.74,6.86c0,.39,1,1.12,1.64,1.24a1.06,1.06,0,0,1,0-.22c0-1.28,3.4-5.86,4.44-6.78.32-.27.56-.45.73-.34Zm-11.84-.92c.27-.32.55-.63.83-.95a28.23,28.23,0,0,1,3-2.9c-.42,1.32-.8,2.57-1.15,3.82l-2.73,0Zm.79,9.28c0,.32,1.57,1.75,2,1.69-.3-.45.06-3.06.57-5.36.47-2.14.86-3.69,1.21-5,.85,0,1.62,0,2.24,0,.16-.1.43-.5.27-.59a1.41,1.41,0,0,0-.23,0c-.56,0-1.29-.07-2.1-.09.34-1.22.65-2.21,1-3.27a2.92,2.92,0,0,0-2-1.24A33.24,33.24,0,0,0,108,47.6a27,27,0,0,0-3.89.39c-.27.17-.63,1-.52,1.15a23.63,23.63,0,0,1,3.42-.53,33.79,33.79,0,0,0-4.58,5.57c-.19.59,1,1.45,1.72,1.64.07-.72,2.1-4.11,4.71-7.37,1.08-.09,2.17-.16,3.23-.2-.17.66-.34,1.31-.5,2a40.21,40.21,0,0,0-1.22,6.61Z"/></g></g></svg>